<svg xmlns="http://www.w3.org/2000/svg" viewBox="0 0 384 512"><!--! Font Awesome Free 6.4.0 by @fontawesome - https://fontawesome.com License - https://fontawesome.com/license (Commercial License) Copyright 2023 Fonticons, Inc. --><path fill="#ff6b00" d="M153.6 29.9l16-21.3C173.6 3.2 180 0 186.7 0C198.4 0 208 9.6 208 21.3V43.5c0 13.1 5.4 25.7 14.9 34.7L307.6 159C356.4 205.6 384 270.2 384 336c0 106-86 192-192 192S0 442 0 336c0-41.8 13.1-82.6 37.4-116.1l4-5.5c7.4-10.2 21.6-12.7 32-5.7s12.9 21.2 5.5 31.4l-4 5.5C55.6 272.2 44.8 303.6 44.8 336c0 81.3 65.9 147.2 147.2 147.2s147.2-65.9 147.2-147.2c0-50.6-21.3-99.7-58.9-135.5L195.6 119.8C182.5 107.5 174.6 90.1 174.6 71.5V43.5c-35 15.2-64.8 40.5-84.5 73.6l-5.6 9.4c-6.1 10.3-19.4 13.7-29.8 7.6s-13.7-19.4-7.6-29.8l5.6-9.4C79.7 49 113.6 15.6 153.6 29.9zM224 224c0 35.3-28.7 64-64 64s-64-28.7-64-64s28.7-64 64-64s64 28.7 64 64z"/></svg>
